Coordinates
version=1
nRows=13
nColumns=40
inDegrees=yes

Units are S.I. units (second, meters, Newtons, ...)
If the header above contains a line with 'inDegrees', this indicates whether rotational values are in degrees (yes) or radians (no).

endheader
time	pelvis_tilt	pelvis_list	pelvis_rotation	pelvis_tx	pelvis_ty	pelvis_tz	hip_flexion_r	hip_adduction_r	hip_rotation_r	knee_angle_r	knee_angle_r_beta	ankle_angle_r	subtalar_angle_r	mtp_angle_r	hip_flexion_l	hip_adduction_l	hip_rotation_l	knee_angle_l	knee_angle_l_beta	ankle_angle_l	subtalar_angle_l	mtp_angle_l	lumbar_extension	lumbar_bending	lumbar_rotation	arm_flex_r	arm_add_r	arm_rot_r	elbow_flex_r	pro_sup_r	wrist_flex_r	wrist_dev_r	arm_flex_l	arm_add_l	arm_rot_l	elbow_flex_l	pro_sup_l	wrist_flex_l	wrist_dev_l
      1.02000000	     19.39069984	      3.94221188	      3.38172343	      1.49539747	      0.97789109	     -0.37884365	      2.69750016	     -7.01707844	     -7.74825748	     29.34127044	      0.51210178	     -6.37994384	      0.00000000	      0.00000000	    -28.27013636	      6.80498849	      7.80319357	      6.07341302	      0.10600105	     -6.94865200	      0.00000000	      0.00000000	    -33.12139646	     -1.78784963	     -8.00081658	     -1.56338527	    -15.39570156	      7.05203755	     40.67465767	     75.59017810	      0.00000000	      0.00000000	     11.00528229	    -25.77482637	     24.75749578	     54.78556391	     72.61205758	      0.00000000	      0.00000000
      1.02400000	     19.32664909	      3.99993117	      3.58616775	      1.49999455	      0.97720050	     -0.37904905	      2.99439269	     -7.03831868	     -8.07967734	     28.22192574	      0.49256553	     -6.79821207	      0.00000000	      0.00000000	    -28.56969546	      6.74810000	      7.91419832	      5.99641585	      0.10465720	     -6.82292388	      0.00000000	      0.00000000	    -33.14045555	     -1.72586011	     -8.17161177	     -1.54559682	    -15.30143224	      6.80061739	     40.57241398	     75.41970745	      0.00000000	      0.00000000	     11.38250294	    -25.90733447	     25.29313200	     54.77735283	     73.02819054	      0.00000000	      0.00000000
      1.02800000	     19.10523898	      4.15581195	      3.59706329	      1.50457256	      0.97616633	     -0.37905242	      3.58262889	     -7.16030900	     -8.14742747	     27.31387214	      0.47671700	     -7.16420816	      0.00000000	      0.00000000	    -28.70084339	      6.88084761	      8.08923216	      5.93928740	      0.10366012	     -6.68540811	      0.00000000	      0.00000000	    -33.02563410	     -1.85892097	     -8.32253706	     -1.54898501	    -15.25148331	      6.69844084	     40.64777423	     75.34656850	      0.00000000	      0.00000000	     11.63174632	    -25.99694766	     25.35561276	     54.91044176	     73.17001972	      0.00000000	      0.00000000
      1.03200000	     18.87464515	      4.29916438	      3.58508529	      1.50950297	      0.97498429	     -0.37913210	      4.22422175	     -7.32291356	     -8.42041220	     26.55297810	      0.46343689	     -7.18296137	      0.00000000	      0.00000000	    -28.84270999	      7.03474261	      7.90343149	      5.87236342	      0.10249208	     -6.50212712	      0.00000000	      0.00000000	    -32.83669838	     -1.99138858	     -8.43044076	     -1.58175278	    -15.22854685	      6.65030300	     40.65804236	     75.30904206	      0.00000000	      0.00000000	     11.80071252	    -26.08087552	     25.41625539	     55.05934408	     73.23055484	      0.00000000	      0.00000000
      1.03600000	     18.64082244	      4.43299640	      3.62364079	      1.51416621	      0.97385118	     -0.37914452	      4.80692851	     -7.43518448	     -8.60962982	     25.63633427	      0.44743844	     -7.42409391	      0.00000000	      0.00000000	    -28.92775345	      7.15423402	      7.84631818	      5.88279471	      0.10267414	     -6.29355518	      0.00000000	      0.00000000	    -32.68992587	     -2.10132368	     -8.59309931	     -1.53882593	    -15.13801057	      6.51281301	     40.64654406	     75.26971904	      0.00000000	      0.00000000	     12.01942862	    -26.18543871	     25.50650158	     55.22142695	     73.32020004	      0.00000000	      0.00000000
      1.04000000	     18.40637752	      4.57903697	      3.65591076	      1.51885930	      0.97266826	     -0.37923982	      5.37860984	     -7.57169842	     -8.76874695	     24.72865500	      0.43159645	     -7.58675997	      0.00000000	      0.00000000	    -29.00439889	      7.29611083	      7.77771248	      5.91046646	      0.10315710	     -6.08514306	      0.00000000	      0.00000000	    -32.53568032	     -2.21508818	     -8.73460888	     -1.53713204	    -15.09493218	      6.41383342	     40.63708007	     75.23351685	      0.00000000	      0.00000000	     12.25467985	    -26.24706851	     25.54034452	     55.30075921	     73.39000478	      0.00000000	      0.00000000
      1.04400000	     18.27685019	      4.61728330	      3.77820939	      1.52340014	      0.97172058	     -0.37923887	      5.73798609	     -7.52086952	     -8.98084966	     23.60394124	      0.41196649	     -8.13472684	      0.00000000	      0.00000000	    -29.09925392	      7.28156059	      7.55859312	      6.07401333	      0.10601153	     -5.79778653	      0.00000000	      0.00000000	    -32.50595018	     -2.17976567	     -8.86671556	     -1.44262369	    -15.01569237	      6.30229337	     40.51879737	     75.13878413	      0.00000000	      0.00000000	     12.58931007	    -26.27245905	     25.64234828	     55.26402327	     73.61997985	      0.00000000	      0.00000000
      1.04800000	     18.07431824	      4.74051681	      3.82555067	      1.52803076	      0.97051115	     -0.37923442	      6.26412577	     -7.57930872	     -9.08489524	     22.67004584	      0.39566694	     -8.36396720	      0.00000000	      0.00000000	    -29.15513602	      7.38240976	      7.53152469	      6.21398400	      0.10845448	     -5.49651558	      0.00000000	      0.00000000	    -32.40259278	     -2.26849550	     -9.01053851	     -1.43190487	    -14.94872739	      6.18859365	     40.52316561	     75.06213399	      0.00000000	      0.00000000	     12.82435243	    -26.40372864	     25.76389050	     55.41331841	     73.78117308	      0.00000000	      0.00000000
      1.05200000	     17.86588578	      4.81532969	      3.84188932	      1.53266016	      0.96928029	     -0.37907440	      6.78216283	     -7.56110888	     -9.17878702	     21.72512835	      0.37917502	     -8.62136631	      0.00000000	      0.00000000	    -29.21762593	      7.43039740	      7.57680203	      6.33895741	      0.11063568	     -5.21219943	      0.00000000	      0.00000000	    -32.28246340	     -2.34235036	     -9.08497995	     -1.42728932	    -14.86829971	      6.04477880	     40.56214841	     74.99193372	      0.00000000	      0.00000000	     13.02641236	    -26.56526702	     25.95525140	     55.64822678	     73.84631052	      0.00000000	      0.00000000
      1.05600000	     17.68458516	      4.86962627	      3.93716789	      1.53730202	      0.96815826	     -0.37915742	      7.24236006	     -7.54665575	     -9.49238562	     20.77536458	      0.36259852	     -8.94730841	      0.00000000	      0.00000000	    -29.26620904	      7.44059339	      7.46743452	      6.53022722	      0.11397397	     -4.92762125	      0.00000000	      0.00000000	    -32.17209449	     -2.33111334	     -9.22538664	     -1.20708164	    -14.83664934	      6.17663244	     40.18365232	     74.95564584	      0.00000000	      0.00000000	     13.36411718	    -26.50942889	     25.95907889	     55.42553935	     73.93266373	      0.00000000	      0.00000000
      1.06000000	     17.48320400	      4.94334707	      3.88803672	      1.54188871	      0.96679067	     -0.37888194	      7.95328230	     -7.59318591	     -9.70064723	     20.27881005	      0.35393200	     -8.89052533	      0.00000000	      0.00000000	    -29.32976368	      7.51871136	      7.32276856	      6.60195592	      0.11522587	     -4.82072443	      0.00000000	      0.00000000	    -32.07631636	     -2.42782350	     -9.30591501	     -1.16120064	    -14.77017947	      6.14115462	     40.27863254	     74.94485935	      0.00000000	      0.00000000	     13.57826716	    -26.59429200	     25.90743575	     55.53477680	     73.93423507	      0.00000000	      0.00000000
      1.06400000	     17.25917982	      5.09045162	      3.93094225	      1.54665765	      0.96554515	     -0.37893194	      8.31096831	     -7.61907356	     -9.58193963	     19.03306457	      0.33218964	     -9.52989031	      0.00000000	      0.00000000	    -29.32635612	      7.64492264	      7.25921186	      6.86247989	      0.11977287	     -4.37152134	      0.00000000	      0.00000000	    -31.93503892	     -2.53996333	     -9.41647225	     -1.14264926	    -14.69492911	      5.94755591	     40.22149931	     74.84678959	      0.00000000	      0.00000000	     13.79744536	    -26.61777304	     25.97441574	     55.56950895	     73.97757643	      0.00000000	      0.00000000
      1.06800000	     17.10606072	      5.07986230	      3.98707604	      1.55143549	      0.96429852	     -0.37850776	      8.69312721	     -7.45893740	     -9.65648978	     18.05354884	      0.31509387	     -9.85317082	      0.00000000	      0.00000000	    -29.36201077	      7.58383634	      6.99586338	      7.13924612	      0.12460335	     -4.06685386	      0.00000000	      0.00000000	    -31.84033125	     -2.53686024	     -9.47598947	     -1.00248742	    -14.62412568	      6.05679361	     39.99856980	     74.77597536	      0.00000000	      0.00000000	     13.99648630	    -26.87452012	     26.31035501	     55.78824948	     74.00837460	      0.00000000	      0.00000000
